<svg width="140" height="42" viewBox="0 0 140 42" fill="none" xmlns="http://www.w3.org/2000/svg">
<g clip-path="url(#clip0_2_3803)">
<path d="M17.8522 28.0174C18.1427 27.9062 18.2768 27.5951 18.1651 27.3061C18.1204 27.195 18.031 27.0839 17.9193 27.0172C13.7412 25.3057 9.76415 23.1719 6.0329 20.6602C5.56372 20.3268 5.47435 19.66 5.80951 19.2155C5.85419 19.1488 5.92123 19.0821 5.98822 19.0377C13.2496 13.3475 21.6059 9.23553 30.5653 6.96836C30.6323 6.96836 30.677 6.94614 30.7441 6.92393C31.0569 6.83501 31.392 6.7683 31.7271 6.67939L31.9953 6.61274C32.2187 6.47939 32.2857 6.21263 32.1517 6.01258C32.1293 5.96815 32.0847 5.92372 32.0399 5.87923L31.9506 5.8348C31.5931 5.63475 31.2356 5.43469 30.8781 5.23465C30.7441 5.16797 30.5877 5.12352 30.4536 5.12352C30.4089 5.12352 30.3866 5.12352 30.3419 5.12352C30.2972 5.12352 30.2525 5.14574 30.2078 5.14574C20.1759 7.14619 10.7696 11.436 2.72619 17.6818L2.6815 17.7263L2.63682 17.7707C2.43573 17.8596 2.18996 17.8596 2.01122 17.7263L1.98888 17.7041C1.76545 17.504 1.72076 17.1706 1.92185 16.9483C1.94419 16.9261 1.96653 16.9038 1.98888 16.8816C8.82576 11.2359 16.7128 7.03506 25.2254 4.50116L25.5382 4.41225C25.918 4.30111 26.2979 4.18998 26.6777 4.10107L26.8564 4.05662C27.0799 3.94548 27.1916 3.67876 27.0799 3.43426C27.0352 3.34535 26.9681 3.27867 26.8564 3.21199C26.4319 3.01195 25.9851 2.8119 25.5382 2.61186C25.3371 2.52295 25.0914 2.50072 24.8679 2.54518C15.8861 4.79011 7.46285 8.90212 0.179109 14.6145C0.0673947 14.7034 0.000366211 14.8367 0.000366211 14.9701V30.2845C0.000366211 31.8404 1.27391 33.1074 2.8379 33.1074C3.08367 33.1074 3.35179 33.063 3.59756 32.9963C8.53533 31.8849 13.3167 30.2179 17.8522 28.0174Z" fill="url(#paint0_linear_2_3803)"/>
<path d="M0.469673 13.0137C0.559043 13.0137 0.648414 12.9915 0.715447 12.947L0.76013 12.9026C7.03846 8.03482 14.1658 4.32292 21.7624 1.96685C22.0081 1.9224 22.1868 1.70013 22.1422 1.4334C22.1199 1.30004 22.0528 1.1889 21.9411 1.12222L21.7624 1.05554L21.0027 0.766588C20.1537 0.455408 19.2153 0.455408 18.3662 0.766588C12.222 3.01152 6.41287 6.05662 1.09527 9.85745C0.402645 10.3909 -0.0218683 11.2356 0.000474458 12.1246V12.5692C0.000474458 12.8136 0.223902 13.0137 0.469673 13.0137Z" fill="url(#paint1_linear_2_3803)"/>
<path d="M35.6819 9.36902C35.5255 9.36902 35.3691 9.39123 35.2127 9.41345C35.1234 9.43567 35.0116 9.45794 34.9223 9.48015C29.9845 10.5915 25.2031 12.2585 20.6675 14.459C20.3771 14.5701 20.243 14.8813 20.3547 15.1703C20.3994 15.2814 20.4888 15.3925 20.6005 15.4592C24.7786 17.1707 28.7556 19.3045 32.4869 21.8162C32.9561 22.1496 33.0454 22.8164 32.7103 23.2609C32.6656 23.3276 32.5986 23.3943 32.5316 23.4387C25.2701 29.1289 16.9139 33.2409 7.95443 35.5081C7.88744 35.5081 7.84271 35.5303 7.77572 35.5525C7.46292 35.6414 7.12776 35.7081 6.7926 35.797L6.52448 35.8637C6.30109 35.997 6.23405 36.2638 6.36808 36.4638C6.39045 36.5083 6.43512 36.5527 6.4798 36.5972L6.56921 36.6416C6.92668 36.8417 7.28416 37.0417 7.64163 37.2196C7.79803 37.3084 7.99911 37.3529 8.17787 37.3307C8.22255 37.3307 8.26723 37.3084 8.3119 37.3084C18.2992 35.308 27.7055 31.0182 35.7489 24.7946L35.7936 24.7501L35.8383 24.7057C36.0394 24.5946 36.2628 24.5946 36.4416 24.7279L36.4639 24.7501C36.6873 24.9502 36.732 25.2836 36.5309 25.5059C36.5086 25.5281 36.4863 25.5503 36.4639 25.5726C29.627 31.2182 21.74 35.4191 13.2274 37.953L12.9146 38.0419C12.5347 38.1531 12.1549 38.2642 11.7751 38.3531L11.5963 38.3975C11.3729 38.5087 11.2612 38.7754 11.3729 39.0199C11.4176 39.1088 11.4846 39.1755 11.5963 39.2422C12.0208 39.4422 12.4677 39.6423 12.8922 39.8423C13.0933 39.9312 13.3391 39.9535 13.5625 39.909C22.5443 37.6418 30.9676 33.5299 38.2513 27.8175C38.363 27.7285 38.4077 27.5952 38.4301 27.4618V12.1696C38.4971 10.6359 37.2459 9.36902 35.6819 9.36902Z" fill="url(#paint2_linear_2_3803)"/>
<path d="M38.0502 29.4623C37.9609 29.4623 37.8715 29.4846 37.8045 29.529L37.7598 29.5734C31.4814 34.4412 24.3541 38.1531 16.7576 40.5092C16.5117 40.5536 16.333 40.7759 16.3777 41.0426C16.4001 41.176 16.4671 41.2871 16.5788 41.3538L16.7576 41.4205L17.5172 41.7094C18.3662 42.0206 19.3046 42.0206 20.1536 41.7094C26.2979 39.4645 32.107 36.4194 37.4246 32.6185C38.1173 32.0851 38.5194 31.2405 38.5194 30.3514V29.9069C38.5194 29.6623 38.3183 29.4623 38.0502 29.4623Z" fill="url(#paint3_linear_2_3803)"/>
<path d="M43.3233 28.9288C42.2508 28.7065 41.2455 28.3065 40.307 27.773L42.0051 23.95C42.7871 24.3945 43.6361 24.7501 44.5075 24.9724C45.3789 25.2169 46.2726 25.3503 47.1663 25.3725C47.9036 25.3725 48.4175 25.3058 48.7303 25.1725C48.9984 25.0835 49.1995 24.8391 49.1995 24.5279C49.1995 24.1945 48.9984 23.95 48.5739 23.7944C47.9259 23.5721 47.2556 23.3943 46.563 23.2609C45.5353 23.0609 44.5298 22.7942 43.5467 22.4608C42.7424 22.1718 42.0274 21.6828 41.4465 21.0382C40.8432 20.3714 40.5528 19.4823 40.5528 18.3709C40.5528 17.4152 40.8432 16.4817 41.3795 15.7037C42.0051 14.8591 42.8541 14.1923 43.8372 13.8144C44.932 13.3476 46.2502 13.1254 47.8142 13.1254C48.8867 13.1254 49.9368 13.2365 50.9646 13.4588C51.9253 13.6588 52.8414 13.9922 53.6904 14.4812L52.104 18.2821C50.5624 17.5041 49.1101 17.1263 47.7472 17.1263C46.3843 17.1263 45.6917 17.4597 45.714 18.1042C45.714 18.4154 45.9151 18.6599 46.3172 18.7933C46.9652 19.0155 47.6355 19.1712 48.3057 19.2823C49.3335 19.4601 50.339 19.7268 51.322 20.038C52.1487 20.3269 52.8637 20.816 53.4446 21.4383C54.0479 22.0829 54.3383 22.972 54.3383 24.1055C54.3383 25.0613 54.0479 25.9726 53.5116 26.7506C52.886 27.5952 52.037 28.262 51.0539 28.6399C49.9591 29.1066 48.6409 29.3511 47.0769 29.3511C45.848 29.3733 44.5745 29.2178 43.3233 28.9288Z" fill="#312A6C"/>
<path d="M59.6109 28.3064C55.6787 26.2837 54.1371 21.4827 56.1478 17.5707C56.9074 16.1038 58.1139 14.9035 59.6109 14.1256C62.4712 12.7252 65.8223 12.7252 68.6825 14.1256C72.6148 16.1482 74.1564 20.9492 72.1451 24.8612C71.3854 26.3282 70.179 27.5285 68.6825 28.3064C65.8223 29.7067 62.4712 29.7067 59.6109 28.3064ZM65.9115 24.6389C66.4481 24.3055 66.8949 23.8388 67.1631 23.2831C67.7884 21.9939 67.7884 20.4825 67.1631 19.1711C66.8725 18.6154 66.4481 18.1487 65.9115 17.8153C64.8172 17.1707 63.454 17.1707 62.3591 17.8153C61.8231 18.1487 61.3763 18.6154 61.108 19.1711C60.4822 20.4603 60.4822 21.9717 61.108 23.2831C61.3986 23.8388 61.8231 24.3055 62.3591 24.6389C63.4763 25.2835 64.8172 25.2835 65.9115 24.6389Z" fill="#312A6C"/>
<path d="M79.5635 17.4155V20.0828H86.0872V24.0392H79.5635V29.0181H74.2904V13.4591H87.0036V17.4155H79.5635Z" fill="#312A6C"/>
<path d="M93.0581 17.5266H88.4783V13.4591H102.889V17.5266H98.3089V29.0181H93.0358V17.5266H93.0581Z" fill="#312A6C"/>
<path d="M106.374 27.4177C105.034 26.1285 104.364 24.3282 104.364 21.9943V13.4591H109.637V21.8609C109.637 22.9945 109.837 23.8391 110.262 24.3504C110.664 24.8616 111.268 25.1283 112.027 25.1283C112.809 25.1283 113.39 24.8616 113.793 24.3504C114.195 23.8391 114.418 22.9945 114.418 21.8609V13.4591H119.601V22.0166C119.601 24.3504 118.931 26.1507 117.59 27.4399C116.25 28.7291 114.373 29.3737 111.983 29.3737C109.57 29.3515 107.715 28.7069 106.374 27.4177Z" fill="#312A6C"/>
<path d="M135.197 29.0181L135.152 21.9276L131.756 27.6177H129.433L126.036 22.1721V29.0181H121.233V13.4591H125.567L130.661 21.7498L135.622 13.4591H139.956L140.001 29.0181H135.197Z" fill="#312A6C"/>
</g>
<defs>
<linearGradient id="paint0_linear_2_3803" x1="-13.9888" y1="41.4767" x2="29.0234" y2="10.5974" gradientUnits="userSpaceOnUse">
<stop stop-color="#312A6C"/>
<stop offset="1" stop-color="#852D91"/>
</linearGradient>
<linearGradient id="paint1_linear_2_3803" x1="-9.61708" y1="16.429" x2="8.57747" y2="-5.57613" gradientUnits="userSpaceOnUse">
<stop stop-color="#312A6C"/>
<stop offset="1" stop-color="#852D91"/>
</linearGradient>
<linearGradient id="paint2_linear_2_3803" x1="-7.65211" y1="48.2945" x2="35.3017" y2="17.5177" gradientUnits="userSpaceOnUse">
<stop stop-color="#312A6C"/>
<stop offset="1" stop-color="#852D91"/>
</linearGradient>
<linearGradient id="paint3_linear_2_3803" x1="6.75453" y1="45.3581" x2="24.9492" y2="23.3536" gradientUnits="userSpaceOnUse">
<stop stop-color="#312A6C"/>
<stop offset="1" stop-color="#852D91"/>
</linearGradient>
<clipPath id="clip0_2_3803">
<rect width="140" height="42" fill="white"/>
</clipPath>
</defs>
</svg>
